<?xml version="1.0" encoding="UTF-8" standalone="no"?>
<svg
   width="1200pt"
   height="1200pt"
   version="1.1"
   viewBox="0 0 1200 1200"
   id="svg4"
   xmlns="http://www.w3.org/2000/svg"
   xmlns:svg="http://www.w3.org/2000/svg">
  <defs
     id="defs8" />
  <path
     fill="#FFFFFF"
     d="m 600,160.1452 c -122.16485,0 -239.33097,48.53155 -325.72437,134.91466 -86.38482,86.38483 -134.91466,203.55093 -134.91466,325.72443 0,122.1734 48.53155,239.3309 134.91466,325.7243 86.38483,86.38481 203.55095,134.91471 325.72437,134.91471 122.1734,0 239.331,-48.5315 325.7244,-134.91471 86.3847,-86.3848 134.9146,-203.5509 134.9146,-325.7243 C 1060.5051,498.65369 1011.9299,381.5733 925.5701,295.2142 839.2101,208.85509 722.1306,160.28238 600,160.1452 Z m 0,40.43581 c 95.6192,0.13062 188.3404,32.80309 262.9186,92.64398 74.5756,59.84175 126.56331,143.28306 147.4071,236.6044 -74.3372,-21.811 -153.9578,-16.9777 -225.1149,13.6621 -71.1554,30.6355 -129.3843,85.1587 -164.6242,154.1551 -7.6129,-0.5158 -15.2294,-0.8239 -22.7387,-0.8239 -7.5124,0 -12.4497,0 -19.0338,0.6162 -28.0136,-54.446 -70.4489,-100.1463 -122.67075,-132.1194 -52.22188,-31.9723 -112.21883,-48.98 -173.44702,-49.1712 -31.3429,0.013 -62.52117,4.4847 -92.6011,13.2728 20.88584,-93.19272 72.8402,-176.51657 147.32149,-236.28715 C 411.90488,233.3625 504.5017,200.68717 600.0009,200.48139 Z M 179.6939,620.78429 c 0.0167,-19.0339 1.323,-38.0411 3.90862,-56.8974 31.84192,-11.1636 65.34122,-16.8671 99.08318,-16.874 53.55859,0.2043 106.10543,14.5932 152.30309,41.7022 46.19338,27.109 84.38191,65.9706 110.68401,112.6304 -29.7249,4.6622 -58.6662,13.3869 -86.0161,25.9266 -2.60578,-3.7043 -5.28187,-7.3383 -8.02492,-10.9055 l -2.57225,-2.9842 c -2.05643,-2.4685 -4.01246,-4.9402 -6.17272,-7.3048 l -3.49664,-3.7043 c -1.95594,-2.0564 -3.80813,-4.1163 -5.86456,-6.0689 l -4.01246,-3.7043 -5.86456,-5.3488 -4.32061,-3.6005 -6.06889,-4.8363 -4.62868,-3.3962 -6.17272,-4.3206 -4.94019,-3.1886 -6.38039,-3.9086 -5.14451,-2.8804 -6.58471,-3.4966 -5.7675,-3.1986 -6.79237,-3.0881 -5.45267,-2.2641 -6.9967,-2.6761 -5.55649,-1.9559 -7.30478,-2.1603 -5.55649,-1.544 -7.61292,-1.7484 -5.5565,-1.2359 -8.02491,-1.3364 -5.24834,-0.8239 -9.05347,-0.9244 h -4.5282 -13.58149 -12.55345 -2.16027 c -4.04598,0 -8.05835,0.3785 -12.03728,1.1321 h -2.16027 c -3.77126,0.4789 -7.51243,1.0985 -11.2133,1.8522 h -1.44021 c -3.90862,0.8239 -7.82059,1.6478 -11.72947,2.6761 l -2.5756,1.0282 c -3.90862,1.0282 -7.71675,2.1602 -11.52455,3.3961 l -1.54404,0.5158 c -3.49663,1.1656 -6.9263,2.4684 -10.28901,3.9086 l -1.95593,0.824 c -3.7043,1.5105 -7.3383,3.1215 -10.9055,4.8363 l -2.2641,1.1321 -6.38039,3.2923 c -1.33303,-12.7613 -1.94925,-25.5188 -1.94925,-38.4838 z m 32.41124,161.7432 c -12.08444,-28.8272 -20.88583,-58.9243 -26.23869,-89.7202 2.2641,-1.4402 4.5282,-2.8804 6.89286,-4.2201 h 0.82393 c 3.56703,-1.9895 7.20093,-3.8751 10.9055,-5.6603 3.7043,-1.7484 7.4086,-3.2923 11.2133,-4.7325 l 1.33637,-0.5158 c 3.7043,-1.3364 7.4086,-2.6761 11.113,-3.8082 l 1.85218,-0.5157 c 3.7043,-1.0986 7.44213,-2.0565 11.21331,-2.8805 h 1.95594 c 3.77127,-0.8239 7.57941,-1.5105 11.42081,-2.0564 h 1.74835 c 3.90863,-0.5158 7.92109,-1.0282 11.93698,-1.3364 h 1.23588 12.75751 11.52456 3.80812 l 7.61293,0.7201 4.42445,0.7201 6.79237,1.1321 4.73252,1.0282 6.48088,1.544 h 4.83635 l 6.17272,1.8522 4.62869,1.6479 6.06888,2.2641 4.52819,1.8522 5.86458,2.6761 4.42444,2.0564 5.86457,3.0881 4.11629,2.2641 5.96839,3.6004 3.7043,2.368 6.38039,4.4244 2.88041,2.0564 c 3.01768,2.2641 5.9684,4.6287 8.84855,7.1005 2.81335,2.4015 5.58994,4.9402 8.33307,7.6129 l 2.57225,2.6761 5.34883,5.5565 2.88041,3.2923 4.52819,5.3488 2.88041,3.7043 2.67609,3.7043 c -3.80813,2.1603 -7.51243,4.5282 -11.31706,6.7924 l -2.98424,1.8522 -9.67252,6.4809 -2.46842,1.6479 c -3.77127,2.676 -7.51244,5.4526 -11.21331,8.333 l -2.36794,1.956 -8.95229,7.3047 -2.67609,2.2641 c -3.49664,3.0177 -6.9263,6.1393 -10.28901,9.3648 l -1.64787,1.544 -5.66032,5.4527 0.006,-0.01 c -16.47528,-24.1012 -42.9712,-39.4481 -72.07367,-41.746 -29.10161,-2.301 -57.68106,8.6985 -77.73348,29.9127 z m 14.60954,30.867 c 12.02099,-19.3219 33.21464,-31.011 55.97308,-30.867 21.66952,0.094 41.91314,10.8318 54.14764,28.7201 12.23448,17.8883 14.89763,40.6467 7.12728,60.8801 -7.77035,20.2299 -24.98601,35.3513 -46.04932,40.4529 -28.37882,-29.3134 -52.35907,-62.5846 -71.19911,-98.7745 z M 664.7179,1035.6372 c -43.9598,6.8225 -88.7256,6.6484 -132.6254,-0.5158 v -6.2766 0 c -0.013,-14.7373 4.9168,-29.0519 13.9999,-40.6536 9.087,-11.6017 21.7973,-19.8243 36.105,-23.34481 h 2.1637 c 9.4247,-2.3412 19.2781,-2.3412 28.7037,0 h 2.1636 c 15.5073,3.69081 29.1291,12.92811 38.2992,25.96341 9.1735,13.0387 13.2634,28.9816 11.4979,44.8232 z m 30.867,-6.0689 v -0.7201 c 0.013,-22.7182 -7.968,-44.716 -22.5475,-62.1361 -14.5829,-17.42281 -34.8291,-29.15571 -57.1923,-33.14101 -4.0493,-0.7 -8.1388,-1.1488 -12.2448,-1.3397 h -10.5968 c -4.1063,0.1909 -8.1957,0.6397 -12.2448,1.3397 -22.3632,3.9857 -42.6094,15.7182 -57.1889,33.14101 -14.583,17.4192 -22.5638,39.4179 -22.5509,62.1361 -29.15223,-7.2211 -57.44016,-17.5702 -84.36821,-30.867 7.35167,-42.73031 29.56376,-81.48471 62.71838,-109.42371 33.15463,-27.9398 75.11403,-43.2627 118.46943,-43.2661 h 1.3363 c 43.7386,0.02 86.0419,15.6307 119.3011,44.0301 33.2593,28.3994 55.3172,67.7292 62.1928,110.92421 -27.0721,12.9315 -55.4646,22.899 -84.6768,29.7352 z m 113.1792,-44.86 c -10.1956,-48.09261 -36.574,-91.22931 -74.736,-122.22501 -38.1619,-30.9879 -85.7932,-47.9553 -134.949,-48.0625 h -1.3397 c -49.0203,0.03 -96.5538,16.8234 -134.71742,47.5901 -38.16195,30.7701 -64.65443,73.6608 -75.07721,121.56461 -23.07653,-13.5479 -44.81722,-29.25931 -64.9228,-46.92041 16.86026,-7.6967 31.15513,-20.0859 41.16977,-35.6832 10.01463,-15.5972 15.33319,-33.7505 15.31605,-52.2853 0,-8.1254 -1.03825,-16.2137 -3.08808,-24.078 l 2.16027,-2.3679 4.32061,-4.5282 5.45266,-5.4527 4.52819,-4.3206 5.76082,-5.1445 4.62868,-4.0124 6.0689,-4.9402 4.7325,-3.7043 6.48089,-4.8364 4.62868,-3.3961 6.9967,-4.7325 4.52819,-2.9843 8.02492,-4.8363 3.90862,-2.2641 c 4.04598,-2.2641 8.12875,-4.4579 12.24478,-6.5847 l 0.0101,0.01 c 34.24954,-17.5136 71.56438,-28.2417 109.88668,-31.5873 9.5687,-0.8239 18.4173,-1.2359 26.8543,-1.2359 10.289,0 20.578,0 30.867,1.5441 v 0 c 73.5742,7.4856 141.8083,41.8059 191.6843,96.408 -1.8856,7.5024 -2.8536,15.2054 -2.8804,22.9428 -0.013,18.9335 5.5397,37.4554 15.966,53.2602 10.4296,15.8057 25.2706,28.1979 42.6797,35.636 -20.6287,18.0023 -42.9584,33.95801 -66.6746,47.63981 z m 92.6011,-72.02321 c -18.552,-3.6707 -34.632,-15.1385 -44.1399,-31.4869 -16.3578,-21.8136 -12.8613,-55.354 9.5688,-78.5043 l 2.6761,-2.5723 c 1.1689,-1.3464 2.5186,-2.5253 4.0124,-3.4999 8.4201,-7.345 18.6754,-12.2688 29.6744,-14.2443 10.9989,-1.9761 22.3297,-0.9277 32.7791,3.0311 15.4163,4.7627 28.57941,14.9645 37.03951,28.7064 -18.90001,36.3528 -42.98831,69.7655 -71.50691,99.1861 z m 86.22181,-130.3617 v 0 c -20.3164,-21.811 -49.55611,-33.0338 -79.25101,-30.4212 -29.6916,2.6124 -56.5227,18.7731 -72.7168,43.7986 -20.4605,-20.7452 -43.5705,-38.7013 -68.7306,-53.4008 l 2.5723,-3.4967 2.8804,-3.8081 4.5282,-5.4527 2.8804,-3.3961 c 1.8522,-2.0565 3.7043,-3.9087 5.5565,-5.8646 l 2.3679,-2.4684 c 2.7431,-2.6761 5.5565,-5.2819 8.4368,-7.8206 l 1.8522,-1.544 c 2.2641,-1.956 4.6287,-3.9087 6.9967,-5.7609 l 3.3962,-2.4684 5.8645,-4.2201 4.0125,-2.5723 5.6603,-3.4966 4.3206,-2.3679 5.7609,-3.0881 4.5282,-2.1603 5.8645,-2.676 4.7325,-1.956 5.9684,-2.2641 4.8364,-1.6478 6.1727,-1.8522 4.8364,-1.3364 6.8895,-1.4369 4.7325,-1.0282 6.8929,-1.132 4.5282,-0.7201 7.7167,-0.824 h 3.9086 11.6258 12.8612 1.2359 c 4.0125,0 8.0249,0.7201 12.0373,1.3364 h 1.7484 c 3.9086,0.6163 7.7502,1.3364 11.5245,2.1603 h 1.8522 c 3.7713,0.8909 7.54601,1.8856 11.31711,2.9842 l 1.7483,0.5158 c 3.8081,1.1321 7.5124,2.4684 11.2133,3.8081 l 1.3363,0.5158 c 3.8082,1.5441 7.613,3.0881 11.3171,4.8364 3.7713,1.7818 7.47569,3.7043 11.11299,5.7608 h 0.7201 c 2.3679,1.3364 4.6286,2.7766 6.8928,4.2201 h 0.01 c -5.2986,31.3661 -14.17059,62.0222 -26.44279,91.3664 z m 24.38579,-126.7607 -2.3679,-1.132 c -3.567,-1.7148 -7.201,-3.3627 -10.90549,-4.9402 l -2.0564,-0.8239 c -3.4297,-1.3733 -6.8594,-2.6761 -10.289,-3.9086 l -1.5441,-0.5158 c -3.8081,-1.2359 -7.6129,-2.368 -11.5245,-3.4967 l -2.8804,-0.1038 c -3.9086,-1.0282 -7.82061,-1.9559 -11.83321,-2.6761 h -1.4402 c -3.7043,-0.6866 -7.4421,-1.3028 -11.2133,-1.8522 h -2.1603 c -3.9789,-0.4789 -7.9914,-0.8574 -12.0373,-1.132 h -2.4717 -12.6572 -13.7856 -4.5282 l -9.0534,0.9244 -5.3489,0.8239 -8.1287,1.3364 -5.5565,1.2358 -7.6129,1.7484 -5.6604,1.6479 -7.3047,2.2641 -5.6604,1.9559 -6.9967,2.6761 -5.4526,2.0564 -6.7924,3.0881 -5.4527,2.6761 -6.5847,3.4966 -5.2483,2.9843 -6.3804,3.9086 -5.0407,3.2923 -6.1727,4.3206 -4.8363,3.6005 -5.9684,4.8363 -4.113,3.8082 -5.7608,5.3488 -4.1163,3.9086 c -1.9559,1.956 -3.8081,3.9086 -5.6603,5.9684 l -3.6005,3.9086 c -2.0564,2.368 -4.0125,4.7326 -5.9684,7.1005 l -2.7766,3.2923 c -2.743,3.567 -5.3856,7.2009 -7.9211,10.9055 v 0 c -27.1158,-12.7609 -55.8461,-21.7638 -85.397,-26.7506 26.309,-46.6992 64.5275,-85.584 110.7612,-112.6989 46.2371,-27.1124 98.8345,-41.4811 152.4317,-41.638 33.958,0 67.67251,5.7809 99.7005,17.0781 2.5086,18.7929 3.7445,37.7332 3.7043,56.6933 0,13.0653 -0.6163,25.9266 -1.7484,38.6875 z"
     id="path2" />
</svg>
