<?xml version="1.0" encoding="UTF-8"?>
<svg fill="white" width="1200pt" height="1200pt" version="1.1" viewBox="0 0 1200 1200" xmlns="http://www.w3.org/2000/svg">
 <path d="m600 62.762c-142.48 0-279.13 56.602-379.89 157.35-100.75 100.75-157.35 237.4-157.35 379.89s56.602 279.13 157.35 379.89c100.75 100.75 237.4 157.35 379.89 157.35s279.13-56.602 379.89-157.35c100.75-100.75 157.35-237.4 157.35-379.89-0.15625-142.44-56.809-278.99-157.53-379.71s-237.27-157.37-379.71-157.53zm0 47.16c111.52 0.15234 219.66 38.258 306.64 108.05 86.977 69.793 147.61 167.11 171.92 275.95-86.699-25.438-179.56-19.801-262.55 15.934-82.988 35.73-150.9 99.32-192 179.79-8.8789-0.60156-17.762-0.96094-26.52-0.96094-8.7617 0-14.52 0-22.199 0.71875-32.672-63.5-82.164-116.8-143.07-154.09-60.906-37.289-130.88-57.125-202.29-57.348-36.555 0.015624-72.918 5.2305-108 15.48 24.359-108.69 84.953-205.87 171.82-275.58 86.875-69.711 194.87-107.82 306.25-108.06zm-490.2 490.08c0.019531-22.199 1.543-44.367 4.5586-66.359 37.137-13.02 76.207-19.672 115.56-19.68 62.465 0.23828 123.75 17.02 177.63 48.637 53.875 31.617 98.414 76.941 129.09 131.36-34.668 5.4375-68.422 15.613-100.32 30.238-3.0391-4.3203-6.1602-8.5586-9.3594-12.719l-3-3.4805c-2.3984-2.8789-4.6797-5.7617-7.1992-8.5195l-4.0781-4.3203c-2.2812-2.3984-4.4414-4.8008-6.8398-7.0781l-4.6797-4.3203-6.8398-6.2383-5.0391-4.1992-7.0781-5.6406-5.3984-3.9609-7.1992-5.0391-5.7617-3.7188-7.4414-4.5586-6-3.3594-7.6797-4.0781-6.7266-3.7305-7.9219-3.6016-6.3594-2.6406-8.1602-3.1211-6.4805-2.2812-8.5195-2.5195-6.4805-1.8008-8.8789-2.0391-6.4805-1.4414-9.3594-1.5586-6.1211-0.96094-10.559-1.0781h-5.2812-15.84-14.641l-2.5195 0.003907c-4.7188 0-9.3984 0.44141-14.039 1.3203h-2.5195c-4.3984 0.55859-8.7617 1.2812-13.078 2.1602h-1.6797c-4.5586 0.96094-9.1211 1.9219-13.68 3.1211l-3.0039 1.1992c-4.5586 1.1992-9 2.5195-13.441 3.9609l-1.8008 0.60156c-4.0781 1.3594-8.0781 2.8789-12 4.5586l-2.2812 0.96094c-4.3203 1.7617-8.5586 3.6406-12.719 5.6406l-2.6406 1.3203-7.4414 3.8398c-1.5547-14.883-2.2734-29.762-2.2734-44.883zm37.801 188.64c-14.094-33.621-24.359-68.723-30.602-104.64 2.6406-1.6797 5.2812-3.3594 8.0391-4.9219h0.96094c4.1602-2.3203 8.3984-4.5195 12.719-6.6016 4.3203-2.0391 8.6406-3.8398 13.078-5.5195l1.5586-0.60156c4.3203-1.5586 8.6406-3.1211 12.961-4.4414l2.1602-0.60156c4.3203-1.2812 8.6797-2.3984 13.078-3.3594h2.2812c4.3984-0.96094 8.8398-1.7617 13.32-2.3984h2.0391c4.5586-0.60156 9.2383-1.1992 13.922-1.5586h1.4414 14.879 13.441 4.4414l8.8789 0.83984 5.1602 0.83984 7.9219 1.3203 5.5195 1.1992 7.5586 1.8008 5.6406 0.003906 7.1992 2.1602 5.3984 1.9219 7.0781 2.6406 5.2812 2.1602 6.8398 3.1211 5.1602 2.3984 6.8398 3.6016 4.8008 2.6406 6.9609 4.1992 4.3203 2.7617 7.4414 5.1602 3.3594 2.3984c3.5195 2.6406 6.9609 5.3984 10.32 8.2812 3.2812 2.8008 6.5195 5.7617 9.7188 8.8789l3 3.1211 6.2383 6.4805 3.3594 3.8398 5.2812 6.2383 3.3594 4.3203 3.1211 4.3203c-4.4414 2.5195-8.7617 5.2812-13.199 7.9219l-3.4805 2.1602-11.281 7.5586-2.8789 1.9219c-4.3984 3.1211-8.7617 6.3594-13.078 9.7188l-2.7617 2.2812-10.441 8.5195-3.1211 2.6406c-4.0781 3.5195-8.0781 7.1602-12 10.922l-1.9219 1.8008-6.6016 6.3594 0.007812-0.007813c-19.215-28.109-50.117-46.008-84.059-48.688-33.941-2.6836-67.273 10.145-90.66 34.887zm17.039 36c14.02-22.535 38.738-36.168 65.281-36 25.273 0.10938 48.883 12.633 63.152 33.496s17.375 47.406 8.3125 71.004c-9.0625 23.594-29.141 41.23-53.707 47.18-33.098-34.188-61.066-72.992-83.039-115.2zm510.84 259.2c-51.27 7.957-103.48 7.7539-154.68-0.60156v-7.3203 0.003906c-0.015625-17.188 5.7344-33.883 16.328-47.414 10.598-13.531 25.422-23.121 42.109-27.227h2.5234c10.992-2.7305 22.484-2.7305 33.477 0h2.5234c18.086 4.3047 33.973 15.078 44.668 30.281 10.699 15.207 15.469 33.801 13.41 52.277zm36-7.0781v-0.83984c0.015625-26.496-9.293-52.152-26.297-72.469-17.008-20.32-40.621-34.004-66.703-38.652-4.7227-0.81641-9.4922-1.3398-14.281-1.5625h-12.359c-4.7891 0.22266-9.5586 0.74609-14.281 1.5625-26.082 4.6484-49.695 18.332-66.699 38.652-17.008 20.316-26.316 45.973-26.301 72.469-34-8.4219-66.992-20.492-98.398-36 8.5742-49.836 34.48-95.035 73.148-127.62 38.668-32.586 87.605-50.457 138.17-50.461h1.5586c51.012 0.023437 100.35 18.23 139.14 51.352s64.516 78.992 72.535 129.37c-31.574 15.082-64.688 26.707-98.758 34.68zm132-52.32c-11.891-56.09-42.656-106.4-87.164-142.55-44.508-36.141-100.06-55.93-157.39-56.055h-1.5625c-57.172 0.035156-112.61 19.621-157.12 55.504-44.508 35.887-75.406 85.91-87.562 141.78-26.914-15.801-52.27-34.125-75.719-54.723 19.664-8.9766 36.336-23.426 48.016-41.617 11.68-18.191 17.883-39.363 17.863-60.98 0-9.4766-1.2109-18.91-3.6016-28.082l2.5195-2.7617 5.0391-5.2812 6.3594-6.3594 5.2812-5.0391 6.7188-6 5.3984-4.6797 7.0781-5.7617 5.5195-4.3203 7.5586-5.6406 5.3984-3.9609 8.1602-5.5195 5.2812-3.4805 9.3594-5.6406 4.5586-2.6406c4.7188-2.6406 9.4805-5.1992 14.281-7.6797l0.011719 0.007813c39.945-20.426 83.465-32.938 128.16-36.84 11.16-0.96094 21.48-1.4414 31.32-1.4414 12 0 24 0 36 1.8008h-0.003907c85.809 8.7305 165.39 48.758 223.56 112.44-2.1992 8.75-3.3281 17.734-3.3594 26.758-0.015625 22.082 6.4609 43.684 18.621 62.117 12.164 18.434 29.473 32.887 49.777 41.562-24.059 20.996-50.102 39.605-77.762 55.562zm108-84c-21.637-4.2812-40.391-17.656-51.48-36.723-19.078-25.441-15-64.559 11.16-91.559l3.1211-3c1.3633-1.5703 2.9375-2.9453 4.6797-4.082 9.8203-8.5664 21.781-14.309 34.609-16.613 12.828-2.3047 26.043-1.082 38.23 3.5352 17.98 5.5547 33.332 17.453 43.199 33.48-22.043 42.398-50.137 81.367-83.398 115.68zm100.56-152.04v-0.003906c-23.695-25.438-57.797-38.527-92.43-35.48-34.629 3.0469-65.922 21.895-84.809 51.082-23.863-24.195-50.816-45.137-80.16-62.281l3-4.0781 3.3594-4.4414 5.2812-6.3594 3.3594-3.9609c2.1602-2.3984 4.3203-4.5586 6.4805-6.8398l2.7617-2.8789c3.1992-3.1211 6.4805-6.1602 9.8398-9.1211l2.1602-1.8008c2.6406-2.2812 5.3984-4.5586 8.1602-6.7188l3.9609-2.8789 6.8398-4.9219 4.6797-3 6.6016-4.0781 5.0391-2.7617 6.7188-3.6016 5.2812-2.5195 6.8398-3.1211 5.5195-2.2812 6.9609-2.6406 5.6406-1.9219 7.1992-2.1602 5.6406-1.5586 8.0352-1.6758 5.5195-1.1992 8.0391-1.3203 5.2812-0.83984 9-0.96094h4.5586 13.559 15 1.4414c4.6797 0 9.3594 0.83984 14.039 1.5586h2.0391c4.5586 0.71875 9.0391 1.5586 13.441 2.5195h2.1602c4.3984 1.0391 8.8008 2.1992 13.199 3.4805l2.0391 0.60156c4.4414 1.3203 8.7617 2.8789 13.078 4.4414l1.5586 0.60156c4.4414 1.8008 8.8789 3.6016 13.199 5.6406 4.3984 2.0781 8.7188 4.3203 12.961 6.7188h0.83984c2.7617 1.5586 5.3984 3.2383 8.0391 4.9219l0.007812-0.003906c-6.1797 36.582-16.527 72.336-30.84 106.56zm28.441-147.84-2.7617-1.3203c-4.1602-2-8.3984-3.9219-12.719-5.7617l-2.3984-0.96094c-4-1.6016-8-3.1211-12-4.5586l-1.8008-0.60156c-4.4414-1.4414-8.8789-2.7617-13.441-4.0781l-3.3594-0.12109c-4.5586-1.1992-9.1211-2.2812-13.801-3.1211h-1.6797c-4.3203-0.80078-8.6797-1.5195-13.078-2.1602h-2.5195c-4.6406-0.55859-9.3203-1-14.039-1.3203h-2.8828-14.762-16.078-5.2812l-10.559 1.0781-6.2383 0.96094-9.4805 1.5586-6.4805 1.4414-8.8789 2.0391-6.6016 1.9219-8.5195 2.6406-6.6016 2.2812-8.1602 3.1211-6.3594 2.3984-7.9219 3.6016-6.3594 3.1211-7.6797 4.0781-6.1211 3.4805-7.4414 4.5586-5.8789 3.8398-7.1992 5.0391-5.6406 4.1992-6.9609 5.6406-4.7969 4.4414-6.7188 6.2383-4.8008 4.5586c-2.2812 2.2812-4.4414 4.5586-6.6016 6.9609l-4.1992 4.5586c-2.3984 2.7617-4.6797 5.5195-6.9609 8.2812l-3.2383 3.8398c-3.1992 4.1602-6.2812 8.3984-9.2383 12.719l-0.003907 0.003906c-31.625-14.883-65.133-25.383-99.598-31.199 30.684-54.465 75.258-99.816 129.18-131.44 53.926-31.621 115.27-48.379 177.78-48.562 39.605 0.003906 78.926 6.7422 116.28 19.918 2.9258 21.918 4.3672 44.008 4.3203 66.121 0 15.238-0.71875 30.238-2.0391 45.121z"/>
</svg>
